<svg xmlns="http://www.w3.org/2000/svg" width="360" height="900" viewBox="0 0 360 900" fill="none">
  <defs>
    <linearGradient id="bg" x1="0" y1="0" x2="1" y2="1">
      <stop stop-color="#ff7528" offset="0%"/>
      <stop stop-color="#e63c25" offset="50%"/>
      <stop stop-color="#1a1f46" offset="100%"/>
    </linearGradient>
    <linearGradient id="card" x1="0" y1="0" x2="1" y2="1">
      <stop stop-color="#ffffff" offset="0%"/>
      <stop stop-color="#f7f9ff" offset="100%"/>
    </linearGradient>
    <filter id="shadow" x="-10%" y="-10%" width="120%" height="120%">
      <feDropShadow dx="0" dy="8" stdDeviation="12" flood-color="#0a0a14" flood-opacity="0.35"/>
    </filter>
    <style>
      .card-title { font: 700 14px 'Segoe UI', sans-serif; fill: #1f2937; }
      .card-sub { font: 600 11px 'Segoe UI', sans-serif; fill: #4b5563; }
      .odd { font: 700 13px 'Segoe UI', sans-serif; fill: #1f2937; }
      .hour { font: 600 11px 'Segoe UI', sans-serif; fill: #0ea5e9; }
      .header { font: 800 16px 'Segoe UI', sans-serif; fill: #0f172a; }
      .header-sub { font: 700 13px 'Segoe UI', sans-serif; fill: #0ea5e9; }
      .tag { font: 700 11px 'Segoe UI', sans-serif; fill: #9ca3af; }
    </style>
  </defs>
  <rect width="360" height="900" rx="24" fill="url(#bg)"/>
  <g filter="url(#shadow)">
    <rect x="18" y="70" width="324" height="810" rx="18" fill="url(#card)"/>
  </g>
  <text x="34" y="108" class="header">Múltipla de 10-seleções</text>
  <text x="300" y="108" class="header-sub" text-anchor="end">55.14</text>
  <line x1="32" x2="328" y1="124" y2="124" stroke="#e5e7eb" stroke-width="1"/>
  <!-- Item template: title, market, meta, odd -->
  <g transform="translate(32,140)">
    <text class="tag" y="0">Real Sociedad</text>
    <text class="card-title" y="20">Resultado Final</text>
    <text class="card-sub" y="36">Real Sociedad - Girona FC</text>
    <text class="hour" y="52">Hoje 17:00</text>
    <text class="odd" x="276" y="20" text-anchor="end">1.75</text>
  </g>
  <line x1="32" x2="328" y1="170" y2="170" stroke="#e5e7eb" stroke-width="1"/>
  <g transform="translate(32,184)">
    <text class="tag" y="0">Mais de 2.5</text>
    <text class="card-title" y="20">Total de Gols Mais/Menos</text>
    <text class="card-sub" y="36">1. FC Union Berlin - RB Leipzig</text>
    <text class="hour" y="52">Hoje 16:30</text>
    <text class="odd" x="276" y="20" text-anchor="end">1.87</text>
  </g>
  <line x1="32" x2="328" y1="214" y2="214" stroke="#e5e7eb" stroke-width="1"/>
  <g transform="translate(32,228)">
    <text class="tag" y="0">Menos de 2.5</text>
    <text class="card-title" y="20">Total de Gols Mais/Menos</text>
    <text class="card-sub" y="36">Angers - Nantes</text>
    <text class="hour" y="52">Hoje 16:45</text>
    <text class="odd" x="276" y="20" text-anchor="end">1.62</text>
  </g>
  <line x1="32" x2="328" y1="258" y2="258" stroke="#e5e7eb" stroke-width="1"/>
  <g transform="translate(32,272)">
    <text class="tag" y="0">Mais de 1.5</text>
    <text class="card-title" y="20">Total de Gols Mais/Menos</text>
    <text class="card-sub" y="36">US Lecce - AC Pisa 1909</text>
    <text class="hour" y="52">Hoje 16:45</text>
    <text class="odd" x="276" y="20" text-anchor="end">1.57</text>
  </g>
  <line x1="32" x2="328" y1="302" y2="302" stroke="#e5e7eb" stroke-width="1"/>
  <g transform="translate(32,316)">
    <text class="tag" y="0">Cluj</text>
    <text class="card-title" y="20">Resultado Final</text>
    <text class="card-sub" y="36">Cluj - FK Csikszereda Miercurea Ciuc</text>
    <text class="hour" y="52">Hoje 15:30</text>
    <text class="odd" x="276" y="20" text-anchor="end">1.32</text>
  </g>
  <line x1="32" x2="328" y1="346" y2="346" stroke="#e5e7eb" stroke-width="1"/>
  <g transform="translate(32,360)">
    <text class="tag" y="0">Menos de 1.5</text>
    <text class="card-title" y="20">Total de Gols Mais/Menos - 1º Tempo</text>
    <text class="card-sub" y="36">West Bromwich Albion - Sheffield United</text>
    <text class="hour" y="52">Hoje 17:00</text>
    <text class="odd" x="276" y="20" text-anchor="end">1.42</text>
  </g>
  <line x1="32" x2="328" y1="390" y2="390" stroke="#e5e7eb" stroke-width="1"/>
  <g transform="translate(32,404)">
    <text class="tag" y="0">Den Haag</text>
    <text class="card-title" y="20">Resultado Final</text>
    <text class="card-sub" y="36">TOP Oss - Den Haag</text>
    <text class="hour" y="52">Hoje 16:00</text>
    <text class="odd" x="276" y="20" text-anchor="end">1.38</text>
  </g>
  <line x1="32" x2="328" y1="434" y2="434" stroke="#e5e7eb" stroke-width="1"/>
  <g transform="translate(32,448)">
    <text class="tag" y="0">Menos de 3.5</text>
    <text class="card-title" y="20">Total de Gols Mais/Menos</text>
    <text class="card-sub" y="36">Dynamo Dresden - Eintracht Braunschweig</text>
    <text class="hour" y="52">Hoje 14:30</text>
    <text class="odd" x="276" y="20" text-anchor="end">1.37</text>
  </g>
  <line x1="32" x2="328" y1="478" y2="478" stroke="#e5e7eb" stroke-width="1"/>
  <g transform="translate(32,492)">
    <text class="tag" y="0">Pau FC</text>
    <text class="card-title" y="20">Resultado Final</text>
    <text class="card-sub" y="36">Pau FC - Amiens SC</text>
    <text class="hour" y="52">Hoje 16:00</text>
    <text class="odd" x="276" y="20" text-anchor="end">1.52</text>
  </g>
  <line x1="32" x2="328" y1="522" y2="522" stroke="#e5e7eb" stroke-width="1"/>
  <g transform="translate(32,536)">
    <text class="tag" y="0">Coleraine FC</text>
    <text class="card-title" y="20">Resultado Final</text>
    <text class="card-sub" y="36">Coleraine FC - Bangor FC</text>
    <text class="hour" y="52">Hoje 16:45</text>
    <text class="odd" x="276" y="20" text-anchor="end">1.23</text>
  </g>
  <text x="180" y="870" text-anchor="middle" class="card-sub" fill="#9ca3af">Visual da múltipla Betano · 12/12</text>
</svg>
